<?xml version="1.0" encoding="UTF-8"?>
<svg width="7px" height="5px" viewBox="0 0 7 5" version="1.1" xmlns="http://www.w3.org/2000/svg" xmlns:xlink="http://www.w3.org/1999/xlink">
    <!-- Generator: Sketch 42 (36781) - http://www.bohemiancoding.com/sketch -->
    <title>ArrowDown-icon</title>
    <desc>Created with Sketch.</desc>
    <defs></defs>
    <g id="Home" stroke="none" stroke-width="1" fill="none" fill-rule="evenodd">
        <g transform="translate(-1492.000000, -830.000000)" id="Group-19" fill="#666666">
            <g>
                <g id="Group-2" transform="translate(1492.000000, 822.000000)">
                    <path d="M0.445565902,12.3745078 L6.55530904,12.3745078 C6.68042622,12.3745078 6.79154428,12.3141366 6.87028936,12.2205175 L6.87203925,12.2222674 C7.04265358,12.0324042 7.04265358,11.7244235 6.87203925,11.5345603 L3.81060559,8.14239735 C3.63999125,7.95253422 3.36350853,7.95253422 3.19376914,8.14239735 C3.18939441,8.14764702 3.18764452,8.15464658 3.1832698,8.15989626 L0.127960752,11.5345603 C-0.0426535842,11.7244235 -0.0426535842,12.0324042 0.127960752,12.2222674 C0.129710643,12.2240172 0.131460534,12.2248922 0.133210424,12.2266421 C0.212830448,12.3176364 0.322198613,12.3745078 0.445565902,12.3745078 L0.445565902,12.3745078 Z" id="ArrowDown-icon" transform="translate(3.500000, 10.187254) rotate(-180.000000) translate(-3.500000, -10.187254) "></path>
                </g>
            </g>
        </g>
    </g>
</svg>