<?xml version="1.0" encoding="UTF-8"?>
<svg width="181px" height="85px" viewBox="0 0 181 85" version="1.1" xmlns="http://www.w3.org/2000/svg" xmlns:xlink="http://www.w3.org/1999/xlink">
    <!-- Generator: Sketch 42 (36781) - http://www.bohemiancoding.com/sketch -->
    <title>logo</title>
    <desc>Created with Sketch.</desc>
    <defs></defs>
    <g id="Home" stroke="none" stroke-width="1" fill="none" fill-rule="evenodd">
        <g transform="translate(-375.000000, -61.000000)" id="Group-19" fill-rule="nonzero" fill="#233161">
            <g>
                <g id="logo" transform="translate(375.000000, 61.000000)">
                    <g id="Layer_1">
                        <g id="Group">
                            <path d="M77.7,25.3 C76.4,25.3 75.2,25.4 74.1,25.6 L74.4,33.1 C75.3,32.7 76.4,32.5 77.5,32.5 C83.8,32.5 87.3,38.7 87.3,46 C87.3,53.9 83.8,59.7 77.6,59.7 C76.8,59.7 76.1,59.6 75.4,59.4 L75.5,62.1 L69.9,65.6 C72,66.4 74.4,66.9 77.1,66.9 C88.9,66.9 97,58.9 97,45.6 C96.9,34.6 90.1,25.3 77.7,25.3 Z" id="Shape"></path>
                            <path d="M121.6,50.4 L127.8,50.4 L127.8,58.9 C127.1,59.3 125.4,59.5 123.3,59.5 C115.8,59.5 110.6,54.6 110.6,46.2 C110.6,37.4 116.4,33.1 124,33.1 C128.4,33.1 131.2,33.9 133.4,34.8 L135.3,27.5 C133.3,26.5 129.3,25.5 124.1,25.5 C110.8,25.5 101.1,33.2 101,46.6 C100.9,52.5 103,57.8 106.7,61.3 C110.4,64.9 115.8,66.8 123.1,66.8 C128.4,66.8 133.8,65.5 136.6,64.5 L136.6,43.2 L121.5,43.2 L121.5,50.4 L121.6,50.4 Z" id="Shape"></path>
                            <path d="M161.6,25.3 C149.7,25.3 141.9,34.4 141.9,46.5 C141.9,58 148.9,67.1 160.9,67.1 C172.7,67.1 180.8,59.1 180.8,45.8 C180.8,34.6 174,25.3 161.6,25.3 Z M161.4,59.8 C155.3,59.8 151.6,54.2 151.6,46.3 C151.6,38.4 155.2,32.6 161.4,32.6 C167.7,32.6 171.2,38.8 171.2,46.1 C171.1,53.9 167.6,59.8 161.4,59.8 Z" id="Shape"></path>
                            <path d="M67.6,46.3 C67.6,53.2 70.5,58.4 75.3,59.5 L74.3,33.1 C70.1,34.7 67.6,39.8 67.6,46.3 Z" id="Shape"></path>
                            <path d="M58,46.5 C58,35.7 64.2,27.3 74,25.6 L73.8,19.8 L36.3,0 L0.4,22.6 L2,65 L39.5,84.8 L69.8,65.8 C62.2,62.9 58,55.4 58,46.5 Z M56.7,66.4 L31.5,66.4 L31.5,25.9 L40.7,25.9 L40.7,58.7 L56.8,58.7 L56.8,66.4 L56.7,66.4 Z" id="Shape"></path>
                        </g>
                    </g>
                </g>
            </g>
        </g>
    </g>
</svg>