<?xml version="1.0" encoding="UTF-8"?>
<svg width="16px" height="18px" viewBox="0 0 16 18" version="1.1" xmlns="http://www.w3.org/2000/svg" xmlns:xlink="http://www.w3.org/1999/xlink">
    <!-- Generator: Sketch 42 (36781) - http://www.bohemiancoding.com/sketch -->
    <title>phone-icon</title>
    <desc>Created with Sketch.</desc>
    <defs></defs>
    <g id="Home" stroke="none" stroke-width="1" fill="none" fill-rule="evenodd">
        <g transform="translate(-1419.000000, -16.000000)" id="Group-19" stroke="#FFFFFF">
            <g>
                <g id="Group-9" transform="translate(1152.000000, 15.000000)">
                    <g id="Group-6" transform="translate(268.000000, 0.000000)">
                        <path d="M5.67183969,5.76250851 C5.48961932,3.30614045 3.30297489,2.10087656 3.21043366,2.05168212 C3.12361662,2.00360573 3.02630522,1.98907101 2.93280995,2.00807795 C0.408437719,2.49890434 0.0287324476,4.2207099 0.013467914,4.29226545 C-0.00752081958,4.39289045 -0.0037046862,4.49686962 0.0230082475,4.59414045 C3.03393749,15.5421399 9.2914422,17.5714113 11.3483381,18.2388905 C11.5067076,18.2903204 11.6374102,18.3316891 11.7366297,18.3697024 C11.7843313,18.3887099 11.8339411,18.3965363 11.8835508,18.3965363 C11.9512872,18.3965363 12.0190235,18.3797649 12.0810357,18.3462232 C12.1440019,18.3126821 13.6303859,17.4920293 13.9938726,14.8154038 C14.0100911,14.699126 13.9938726,14.5783766 13.948079,14.4732793 C13.9156418,14.3994877 13.1381046,12.6653835 10.9819893,12.0526891 C10.831252,12.0068488 10.6766986,12.0538071 10.5603065,12.1700849 C9.88008077,12.8509807 8.94035793,13.5765988 8.53489376,13.6515079 C5.81685276,12.0940571 4.2989857,9.10549462 4.2417437,8.53864045 C4.20835253,8.21999462 4.83133631,7.10082101 5.54781535,6.19072378 C5.63844852,6.07556406 5.68424212,5.91903628 5.67183969,5.76250851 L5.67183969,5.76250851 Z" id="phone-icon"></path>
                    </g>
                </g>
            </g>
        </g>
    </g>
</svg>